<svg xmlns="http://www.w3.org/2000/svg" width="19.072" height="19.162" viewBox="0 0 19.072 19.162">
  <path id="Pfad_12" data-name="Pfad 12" d="M10.425,22.161A2.019,2.019,0,0,1,8.837,21.4L3.731,14.942a1.846,1.846,0,0,1-.385-1.412,1.891,1.891,0,0,1,.771-1.259,2.055,2.055,0,0,1,1.476-.37,2.008,2.008,0,0,1,1.315.74l3.36,4.249L18.715,3.9a2.047,2.047,0,0,1,2.745-.609A1.86,1.86,0,0,1,22.1,5.916L12.117,21.26a2,2,0,0,1-1.6.9c-.031,0-.06,0-.091,0Z" transform="translate(-3.327 -2.999)" fill="#54ebb4"/>
</svg>
