<svg xmlns="http://www.w3.org/2000/svg" width="49.373" height="49.373" viewBox="0 0 49.373 49.373">
  <path id="Pfad_25" data-name="Pfad 25" d="M26.681,2A24.687,24.687,0,1,0,51.367,26.687,24.687,24.687,0,0,0,26.681,2ZM34.53,39.406a1.742,1.742,0,0,1-2.474.868l-6.7-5.207-4.3,3.968a.74.74,0,0,1-.7.1l.825-7.377.026.021.017-.146S33.277,20.649,33.768,20.182s.333-.568.333-.568c.028-.569-.892,0-.892,0L17.231,29.893l-6.654-2.266s-1.022-.367-1.118-1.173S10.61,25.22,10.61,25.22L37.066,14.71s2.175-.969,2.175.636Z" transform="translate(-1.994 -2)" fill="#c5cfd9"/>
</svg>
