<svg xmlns="http://www.w3.org/2000/svg" width="49.491" height="49.49" viewBox="0 0 49.491 49.49">
  <path id="Pfad_24" data-name="Pfad 24" d="M25.146.4A24.746,24.746,0,1,0,49.891,25.146,24.745,24.745,0,0,0,25.146.4ZM15.43,17.413H34.814c1.028,0,.5,1.32-.062,1.657s-8.3,5.019-8.591,5.191a2.217,2.217,0,0,1-2.075,0L15.492,19.07C14.933,18.732,14.4,17.413,15.43,17.413ZM35.456,31.59a1.493,1.493,0,0,1-1.144,1.289H15.979a1.493,1.493,0,0,1-1.144-1.289v-9.4c0-.237-.005-.544.443-.284L24.086,27.1a2.217,2.217,0,0,0,2.075,0l8.852-5.191c.449-.263.443.046.443.284Z" transform="translate(-0.4 -0.4)" fill="#c5cfd9"/>
</svg>
