<svg id="linkedin" xmlns="http://www.w3.org/2000/svg" width="14.099" height="14.099" viewBox="0 0 14.099 14.099">
  <path id="Pfad_16" data-name="Pfad 16" d="M7.049,0A7.049,7.049,0,1,0,14.1,7.049,7.049,7.049,0,0,0,7.049,0Z" fill="#fff"/>
  <path id="Pfad_17" data-name="Pfad 17" d="M15.009,14.067v-2.7c0-1.449-.773-2.123-1.8-2.123a1.555,1.555,0,0,0-1.412.779V9.351H10.224c.021.443,0,4.716,0,4.716h1.568V11.434a1.071,1.071,0,0,1,.052-.382.858.858,0,0,1,.8-.573c.567,0,.794.432.794,1.066v2.523h1.567ZM8.572,8.708a.817.817,0,1,0,.01-1.63.817.817,0,1,0-.02,1.63Zm.784,5.36V9.351H7.789v4.716Z" transform="translate(-4.305 -3.96)" fill="#0d1117"/>
</svg>
