<svg xmlns="http://www.w3.org/2000/svg" width="49.489" height="49.49" viewBox="0 0 49.489 49.49">
  <path id="Pfad_21" data-name="Pfad 21" d="M32.734,7.989A24.745,24.745,0,1,0,57.479,32.734,24.773,24.773,0,0,0,32.734,7.989ZM45.9,26.28a10.59,10.59,0,0,1-2.414,2.562c0,.144.007.287.007.431A14.676,14.676,0,0,1,20.906,41.636a.442.442,0,0,1,.289-.811,10.017,10.017,0,0,0,1.142.067,9.542,9.542,0,0,0,5.028-1.411,5.442,5.442,0,0,1-3.906-3.632.443.443,0,0,1,.09-.428.439.439,0,0,1,.414-.14c.083.016.167.03.25.041a5.466,5.466,0,0,1-2.53-4.6v-.063a.442.442,0,0,1,.656-.386,4.61,4.61,0,0,0,.6.277,5.459,5.459,0,0,1-.474-6.168.442.442,0,0,1,.725-.057,13.82,13.82,0,0,0,9.44,5.028,5.554,5.554,0,0,1-.039-.66,5.449,5.449,0,0,1,9.246-3.905,9.559,9.559,0,0,0,2.806-1.113.442.442,0,1,1,.647.514,5.4,5.4,0,0,1-1.025,1.85,9.4,9.4,0,0,0,1.1-.408.442.442,0,0,1,.546.65Z" transform="translate(-7.99 -7.989)" fill="#c5cfd9"/>
</svg>
